<?xml version="1.0" encoding="utf-8"?>
<!-- Generator: Adobe Illustrator 16.0.0, SVG Export Plug-In . SVG Version: 6.00 Build 0)  -->
<!DOCTYPE svg PUBLIC "-//W3C//DTD SVG 1.1//EN" "http://www.w3.org/Graphics/SVG/1.1/DTD/svg11.dtd">
<svg version="1.1" id="Layer_1" xmlns="http://www.w3.org/2000/svg" xmlns:xlink="http://www.w3.org/1999/xlink" x="0px" y="0px"
	 width="193.5px" height="59.33px" viewBox="0 0 193.5 59.33" enable-background="new 0 0 193.5 59.33" xml:space="preserve">
<g>
	<path fill="#FFFFFF" d="M28.812,49.107v-25.27h1.625v23.521h16.195v1.749H28.812z"/>
	<path fill="#FFFFFF" d="M58.904,49.107h-8.743v-25.27H60.33c3.683,0,6.583,0.883,8.714,2.646c2.599,2.135,3.898,5.482,3.898,10.027
		c0,4.548-1.582,7.899-4.738,10.063C65.756,48.265,62.657,49.107,58.904,49.107z M68.063,27.938
		c-1.869-1.565-4.452-2.349-7.761-2.349h-8.517v21.769h7.229c3.418,0,6.172-0.722,8.267-2.163c2.689-1.837,4.029-4.733,4.029-8.685
		C71.31,32.609,70.23,29.751,68.063,27.938z"/>
	<path fill="#FFFFFF" d="M99.135,49.107l-3.668-7.938H81.484l-3.753,7.938h-1.906l12.042-25.27h1.52l11.598,25.27H99.135z
		 M88.627,26.296l-6.275,13.083h12.322L88.627,26.296z"/>
	<path fill="#FFFFFF" d="M116.281,49.107h-12.163v-25.27h12.638c2.109,0,3.897,0.411,5.353,1.23
		c2.034,1.121,3.051,2.921,3.051,5.406c0,2.433-1.342,4.223-4.032,5.366c3.25,0.919,4.874,2.992,4.874,6.225
		c0,2.685-1.194,4.621-3.581,5.813C120.751,48.699,118.709,49.107,116.281,49.107z M121.127,26.52
		c-1.215-0.619-2.701-0.931-4.45-0.931h-10.929v9.506h10.899c1.694,0,3.163-0.31,4.397-0.934c1.665-0.819,2.496-2.11,2.496-3.876
		C123.541,28.598,122.733,27.341,121.127,26.52z M121.66,37.854c-1.384-0.672-3.081-1.007-5.102-1.007h-10.811v10.512h10.982
		c1.886,0,3.511-0.339,4.875-1.01c1.866-0.892,2.806-2.309,2.806-4.249C124.411,40.163,123.489,38.746,121.66,37.854z"/>
	<path fill="#FFFFFF" d="M147.802,36.773c2.576,1.019,3.865,2.994,3.865,5.926v6.408h-1.654v-6.337c0-3.303-2.39-4.956-7.172-4.956
		h-10.256v11.293h-1.623v-25.27h12.213c5.905,0,8.854,2.213,8.854,6.637C152.028,33.554,150.622,35.652,147.802,36.773z
		 M143.261,25.589h-10.676V35.99h10.062c1.96,0,3.613-0.338,4.956-1.009c1.868-0.917,2.801-2.385,2.801-4.395
		C150.403,27.255,148.022,25.589,143.261,25.589z"/>
	<path fill="#FFFFFF" d="M178.506,49.107l-3.671-7.938h-13.982l-3.749,7.938h-1.906l12.048-25.27h1.509l11.602,25.27H178.506z
		 M167.994,26.296l-6.27,13.083h12.324L167.994,26.296z"/>
	<path fill="#FFFFFF" d="M23.36,49.057l-3.672-7.938H5.708l-3.755,7.938H0.049l12.048-25.27h1.511l11.601,25.27H23.36z
		 M12.854,26.249l-6.279,13.08h12.329L12.854,26.249z"/>
</g>
<path fill="#FFFFFF" d="M191.242,47.263"/>
<path fill="#FFFFFF" d="M6.736,49.358"/>
<rect x="-0.002" y="53.674" fill="#FFFFFF" width="155.924" height="5.629"/>
<g>
	<path fill="#FFFFFF" d="M163.738,59.156h-0.952l-1.335-2.032h-2.491v2.032h-0.82v-5.334h3.891c0.521,0,0.926,0.153,1.225,0.455
		c0.296,0.301,0.441,0.708,0.441,1.228c0,0.448-0.117,0.814-0.357,1.09c-0.225,0.256-0.531,0.415-0.924,0.483L163.738,59.156z
		 M161.913,56.327c0.628,0,0.944-0.273,0.944-0.822c0-0.595-0.339-0.885-1.021-0.885h-2.876v1.707H161.913z"/>
	<path fill="#FFFFFF" d="M170.319,59.156h-5.166v-5.334h4.975v0.798h-4.16v1.369h2.895v0.796h-2.895v1.574h4.352V59.156z"/>
	<path fill="#FFFFFF" d="M172.512,59.156h-0.818v-5.334h0.818V59.156z"/>
	<path fill="#FFFFFF" d="M181.082,59.156h-0.816v-4.36h-0.023l-2.565,3.474l-2.54-3.474h-0.022v4.36h-0.819v-5.334h1.026
		l2.362,3.225l2.379-3.225h1.02V59.156z"/>
</g>
<g>
	<polygon fill="#FFFFFF" points="179.992,0.002 177.718,11.194 166.524,13.47 177.718,15.745 179.992,26.938 182.267,15.745 
		193.46,13.47 182.267,11.194 	"/>
</g>
</svg>
