<?xml version="1.0" encoding="utf-8"?>
<!-- Generator: Adobe Illustrator 16.0.0, SVG Export Plug-In . SVG Version: 6.00 Build 0)  -->
<!DOCTYPE svg PUBLIC "-//W3C//DTD SVG 1.1//EN" "http://www.w3.org/Graphics/SVG/1.1/DTD/svg11.dtd">
<svg version="1.1" id="Layer_1" xmlns="http://www.w3.org/2000/svg" xmlns:xlink="http://www.w3.org/1999/xlink" x="0px" y="0px"
	 width="121.73px" height="36.15px" viewBox="0 0 121.73 36.15" enable-background="new 0 0 121.73 36.15" xml:space="preserve">
<g>
	<path fill="#FFFFFF" d="M6.907,16.164h3.292v-3.305H7.158c-0.735,0-1.228,0.033-1.478,0.104c-0.251,0.07-0.482,0.244-0.69,0.521
		c-0.208,0.275-0.315,0.605-0.315,0.988c0,0.354,0.126,0.727,0.38,1.111C5.311,15.969,5.926,16.164,6.907,16.164 M6.867,22.482
		h3.332v-3.635H6.714c-0.852,0-1.463,0.178-1.831,0.531c-0.368,0.352-0.549,0.773-0.549,1.258c0,0.582,0.192,1.035,0.571,1.359
		C5.286,22.32,5.942,22.482,6.867,22.482 M31.094,15.584c0.256-0.385,0.383-0.758,0.383-1.111c0-0.383-0.104-0.711-0.317-0.988
		c-0.208-0.277-0.438-0.451-0.69-0.521c-0.246-0.07-0.744-0.104-1.476-0.104h-2.985v3.305h3.234
		C30.225,16.164,30.844,15.969,31.094,15.584 M29.281,22.482c0.926,0,1.581-0.162,1.962-0.486c0.385-0.324,0.576-0.777,0.576-1.359
		c0-0.484-0.183-0.906-0.552-1.258c-0.369-0.354-0.979-0.531-1.828-0.531h-3.432v3.635H29.281z M34.238,24.043
		c-0.857,0.822-2.245,1.234-4.164,1.234h-4.066H23.07h-0.025V13.059l-3.768,8.656h-2.42l-3.717-8.732l-0.01,12.295H6.697
		c-2.54,0-3.93-0.412-4.782-1.234c-0.855-0.82-1.284-1.795-1.284-2.922c0-0.826,0.261-1.588,0.787-2.289
		c0.52-0.701,1.305-1.17,2.349-1.404c-1.811-0.559-2.717-1.676-2.717-3.346c0-0.822,0.206-1.523,0.621-2.096
		c0.412-0.574,0.933-1.016,1.569-1.326c0.632-0.309,1.577-0.461,2.839-0.461h8.544l3.498,8.141l3.332-8.141h8.621
		c1.258,0,2.204,0.152,2.84,0.461c0.63,0.311,1.156,0.752,1.566,1.326c0.414,0.572,0.619,1.273,0.619,2.096
		c0,1.67-0.905,2.787-2.717,3.346c1.043,0.234,1.828,0.703,2.354,1.404c0.523,0.701,0.783,1.463,0.783,2.287
		C35.52,22.248,35.094,23.223,34.238,24.043 M33.156,8.115c-5.5-8.329-16.717-10.619-25.04-5.119
		C-0.216,8.497-2.506,19.709,2.995,28.039c5.505,8.326,16.717,10.615,25.042,5.115C36.362,27.656,38.657,16.439,33.156,8.115
		 M47.971,18.074h-2.488l1.248-2.633L47.971,18.074z M49.43,21.17h0.785l-3.393-7.275h-0.178l-3.438,7.275h0.812l1.133-2.393h3.135
		L49.43,21.17z M57.671,17.637c0,0.668-0.155,1.234-0.47,1.697c-0.313,0.463-0.744,0.783-1.291,0.961
		c-0.389,0.125-1.086,0.189-2.092,0.189h-0.842v-5.877h0.515c1.046,0,1.796,0.068,2.251,0.207c0.607,0.184,1.08,0.525,1.42,1.023
		C57.501,16.336,57.671,16.934,57.671,17.637 M57.936,19.549c0.314-0.555,0.473-1.197,0.473-1.924c0-0.846-0.198-1.572-0.596-2.182
		s-0.949-1.039-1.655-1.287c-0.491-0.174-1.281-0.262-2.369-0.262h-1.509v7.275h2.314c0.907,0,1.612-0.131,2.115-0.395
		S57.621,20.102,57.936,19.549 M63.141,21.17l3.166-7.275h-0.791l-2.451,5.621l-2.412-5.621h-0.791l3.121,7.275H63.141z
		 M69.605,14.607h3.441v-0.713h-4.17v7.275h4.141v-0.711h-3.412V17.6h3.412v-0.713h-3.412V14.607z M78.281,17.09l-1.252-0.01v-2.473
		h1.281c0.5,0,0.855,0.043,1.07,0.129c0.215,0.084,0.389,0.229,0.521,0.428c0.131,0.199,0.197,0.422,0.197,0.664
		c0,0.252-0.064,0.477-0.195,0.68s-0.313,0.352-0.545,0.443C79.127,17.045,78.766,17.09,78.281,17.09 M80.955,21.17l-2.615-3.377
		c0.609-0.004,1.088-0.082,1.434-0.236c0.346-0.152,0.613-0.381,0.799-0.68c0.186-0.301,0.279-0.65,0.279-1.045
		c0-0.475-0.135-0.877-0.404-1.201c-0.271-0.326-0.623-0.539-1.055-0.637c-0.287-0.066-0.834-0.1-1.643-0.1h-1.449v7.275h0.729
		v-3.377h0.41l2.617,3.377H80.955z M86.137,14.607h1.623v-0.713h-3.988v0.713h1.623v6.563h0.742V14.607z M90.932,21.17h0.729v-7.275
		h-0.729V21.17z M96.115,15.848c-0.066-0.148-0.1-0.301-0.1-0.459c0-0.262,0.094-0.48,0.279-0.658
		c0.188-0.178,0.428-0.268,0.719-0.268c0.229,0,0.439,0.059,0.631,0.174c0.193,0.115,0.428,0.355,0.699,0.717l0.594-0.449
		c-0.33-0.455-0.646-0.77-0.945-0.938c-0.297-0.17-0.619-0.256-0.963-0.256c-0.322,0-0.621,0.076-0.898,0.225
		c-0.275,0.15-0.486,0.355-0.641,0.617c-0.15,0.262-0.227,0.549-0.227,0.865c0,0.4,0.127,0.771,0.385,1.113
		c0.148,0.205,0.527,0.535,1.133,0.994c0.604,0.455,1.02,0.844,1.248,1.168c0.166,0.232,0.246,0.473,0.246,0.717
		c0,0.213-0.055,0.416-0.168,0.607c-0.111,0.193-0.273,0.346-0.49,0.457c-0.211,0.115-0.441,0.172-0.688,0.172
		c-0.568,0-1.074-0.4-1.508-1.201l-0.619,0.371c0.305,0.553,0.635,0.947,0.994,1.184c0.361,0.236,0.762,0.354,1.203,0.354
		c0.574,0,1.061-0.193,1.461-0.582c0.4-0.391,0.602-0.848,0.602-1.375c0-0.367-0.115-0.732-0.352-1.096
		c-0.232-0.361-0.666-0.775-1.295-1.24c-0.531-0.393-0.844-0.635-0.941-0.727C96.303,16.158,96.18,15.996,96.115,15.848
		 M101.977,21.17h0.729v-7.275h-0.729V21.17z M111.479,21.17h0.164v-7.275h-0.717v5.576l-4.844-5.576h-0.158v7.275h0.752v-5.51
		L111.479,21.17z M120.738,15.65l0.563-0.533c-0.516-0.492-1.049-0.85-1.592-1.072c-0.545-0.223-1.123-0.334-1.742-0.334
		c-0.762,0-1.443,0.168-2.047,0.502c-0.604,0.336-1.078,0.799-1.426,1.395c-0.346,0.592-0.52,1.234-0.52,1.924
		c0,0.926,0.303,1.742,0.906,2.447c0.787,0.918,1.85,1.375,3.195,1.375c1.107,0,1.994-0.33,2.654-0.99
		c0.662-0.662,0.996-1.557,1-2.68h-3.135v0.703h2.32c-0.094,0.672-0.402,1.221-0.92,1.643c-0.518,0.42-1.15,0.633-1.9,0.633
		c-0.615,0-1.182-0.141-1.701-0.424c-0.518-0.281-0.924-0.668-1.217-1.162s-0.439-1.012-0.439-1.561
		c0-0.533,0.143-1.041,0.424-1.521c0.285-0.48,0.686-0.859,1.201-1.139c0.516-0.281,1.061-0.422,1.629-0.422
		c0.461,0,0.93,0.104,1.412,0.309C119.889,14.949,120.332,15.252,120.738,15.65"/>
</g>
</svg>
