<?xml version="1.0" encoding="utf-8"?>
<!-- Generator: Adobe Illustrator 16.0.0, SVG Export Plug-In . SVG Version: 6.00 Build 0)  -->
<!DOCTYPE svg PUBLIC "-//W3C//DTD SVG 1.1//EN" "http://www.w3.org/Graphics/SVG/1.1/DTD/svg11.dtd">
<svg version="1.1" id="Layer_1" xmlns="http://www.w3.org/2000/svg" xmlns:xlink="http://www.w3.org/1999/xlink" x="0px" y="0px"
	 width="31.67px" height="31.67px" viewBox="0 0 31.67 31.67" enable-background="new 0 0 31.67 31.67" xml:space="preserve">
<g>
	<path fill="#FFFFFF" d="M27.398,0.002H4.267C1.91,0.002,0,1.912,0,4.269V27.4c0,2.357,1.91,4.268,4.267,4.268h11.408l0.019-11.316
		h-2.939c-0.383,0-0.693-0.309-0.694-0.689l-0.014-3.649c-0.002-0.384,0.31-0.696,0.693-0.696h2.935v-3.525
		c0-4.089,2.498-6.316,6.146-6.316h2.994c0.383,0,0.693,0.31,0.693,0.693v3.076c0,0.383-0.31,0.693-0.692,0.693L22.979,9.94
		c-1.984,0-2.368,0.942-2.368,2.326v3.051h4.359c0.415,0,0.738,0.363,0.689,0.775l-0.433,3.648c-0.041,0.35-0.337,0.611-0.689,0.611
		H20.63l-0.02,11.316h6.788c2.355,0,4.267-1.91,4.267-4.268V4.269C31.665,1.912,29.754,0.002,27.398,0.002"/>
</g>
</svg>
