<?xml version="1.0" encoding="utf-8"?>
<!-- Generator: Adobe Illustrator 16.0.0, SVG Export Plug-In . SVG Version: 6.00 Build 0)  -->
<!DOCTYPE svg PUBLIC "-//W3C//DTD SVG 1.1//EN" "http://www.w3.org/Graphics/SVG/1.1/DTD/svg11.dtd">
<svg version="1.1" id="Layer_1" xmlns="http://www.w3.org/2000/svg" xmlns:xlink="http://www.w3.org/1999/xlink" x="0px" y="0px"
	 width="47.97px" height="47.97px" viewBox="0 0 47.97 47.97" enable-background="new 0 0 47.97 47.97" xml:space="preserve">
<g>
	<path fill="#FFFFFF" d="M23.986,47.971c13.247,0,23.986-10.738,23.986-23.986c0-13.247-10.739-23.986-23.986-23.986
		C10.739-0.001,0,10.738,0,23.985C0,37.232,10.739,47.971,23.986,47.971"/>
	<path fill="#CE6240" d="M36.89,22.43L24.796,11.705c-0.186-0.165-0.402-0.258-0.623-0.292c-0.021-0.004-0.041-0.011-0.062-0.014
		c-0.042-0.004-0.083-0.001-0.125,0c-0.042-0.001-0.084-0.004-0.125,0c-0.021,0.003-0.041,0.01-0.062,0.014
		c-0.221,0.034-0.438,0.127-0.624,0.292L11.081,22.43c-0.548,0.486-0.63,1.363-0.183,1.959c0.447,0.596,1.253,0.685,1.801,0.2
		L23.986,14.58l11.285,10.009c0.549,0.485,1.355,0.396,1.802-0.2C37.521,23.793,37.438,22.916,36.89,22.43"/>
	<path fill="#CE6240" d="M30.704,22.698l-6.716-5.74v-0.003l-0.002,0.001l-0.002-0.001l-0.001,0.004l-6.716,5.739
		c-1.097,1.015-2.508,2.509-2.508,4.388v6.084c0,1.879,1.399,3.402,3.126,3.402h3.777v-6.969c0-1.371,1.023-2.482,2.286-2.482
		c1.262,0,2.285,1.111,2.285,2.482v6.969h3.854c1.726,0,3.126-1.523,3.126-3.402v-6.084C33.213,25.207,31.802,23.713,30.704,22.698"
		/>
	<path fill="#CE6240" d="M18.398,14.699V13.38c0-0.811-0.615-1.275-1.373-1.275c-0.759,0-1.375,0.464-1.375,1.275v3.8L18.398,14.699
		z"/>
</g>
</svg>
