<?xml version="1.0" encoding="utf-8"?>
<!-- Generator: Adobe Illustrator 16.0.0, SVG Export Plug-In . SVG Version: 6.00 Build 0)  -->
<!DOCTYPE svg PUBLIC "-//W3C//DTD SVG 1.1//EN" "http://www.w3.org/Graphics/SVG/1.1/DTD/svg11.dtd">
<svg version="1.1" id="Layer_1" xmlns="http://www.w3.org/2000/svg" xmlns:xlink="http://www.w3.org/1999/xlink" x="0px" y="0px"
	 width="31.67px" height="31.67px" viewBox="0 0 31.67 31.67" enable-background="new 0 0 31.67 31.67" xml:space="preserve">
<g>
	<path fill="#FFFFFF" d="M31.665,27.402V4.271c0-2.357-1.91-4.267-4.268-4.267H4.267C1.91,0.004,0,1.915,0,4.271v23.131
		c0,2.355,1.91,4.266,4.267,4.266H7v0.002h13.61H27h0.397C29.755,31.67,31.665,29.758,31.665,27.402"/>
	<path fill="#626366" d="M8.641,5.933c1.255,0,2.274,1.02,2.274,2.276s-1.019,2.276-2.274,2.276c-1.26,0-2.278-1.02-2.278-2.276
		S7.381,5.933,8.641,5.933 M6.674,12.21h3.929v12.627H6.674V12.21z"/>
	<path fill="#626366" d="M13.065,12.21h3.761v1.726h0.054c0.525-0.992,1.805-2.039,3.714-2.039c3.975,0,4.709,2.614,4.709,6.015
		v6.925h-3.924v-6.141c0-1.464-0.026-3.348-2.04-3.348c-2.041,0-2.354,1.596-2.354,3.243v6.246h-3.919V12.21z"/>
</g>
</svg>
