<?xml version="1.0" encoding="utf-8"?>
<!-- Generator: Adobe Illustrator 16.0.0, SVG Export Plug-In . SVG Version: 6.00 Build 0)  -->
<!DOCTYPE svg PUBLIC "-//W3C//DTD SVG 1.1//EN" "http://www.w3.org/Graphics/SVG/1.1/DTD/svg11.dtd">
<svg version="1.1" id="Layer_1" xmlns="http://www.w3.org/2000/svg" xmlns:xlink="http://www.w3.org/1999/xlink" x="0px" y="0px"
	 width="31.67px" height="31.67px" viewBox="0 0 31.67 31.67" enable-background="new 0 0 31.67 31.67" xml:space="preserve">
<g>
	<path fill="#FFFFFF" d="M31.665,27.402V4.271c0-2.357-1.91-4.267-4.268-4.267H4.267C1.91,0.004,0,1.915,0,4.271v23.131
		c0,2.354,1.91,4.266,4.267,4.266H7v0.002h13.61H27h0.397C29.755,31.67,31.665,29.757,31.665,27.402"/>
	<path fill="#626366" d="M4.098,23.61c2.755,0.002,5.01-0.707,6.753-2.161c-2.277-0.218-3.811-1.375-4.664-3.465
		c0.724,0.036,1.453,0.134,2.221-0.145c-2.956-0.78-4.033-3.254-3.956-4.922c0.692,0.291,1.383,0.551,2.197,0.556
		c-0.266-0.248-0.513-0.461-0.742-0.692c-1.452-1.464-1.837-3.683-0.989-5.57c0.148-0.328,0.218-0.433,0.513-0.096
		c2.237,2.552,5.033,4.128,8.377,4.722c0.408,0.073,0.825,0.1,1.236,0.166c0.374,0.06,0.478-0.031,0.428-0.446
		c-0.26-2.148,0.549-3.833,2.369-4.979c1.892-1.192,4.33-0.93,5.969,0.591c0.229,0.213,0.414,0.253,0.712,0.178
		c0.926-0.231,1.802-0.585,2.738-1.094c-0.423,1.181-1.105,2.006-2.15,2.709c1.032-0.059,1.863-0.367,2.781-0.685
		c-0.575,0.864-1.2,1.565-1.956,2.116c-0.417,0.304-0.459,0.647-0.475,1.101c-0.18,5.156-2.26,9.369-6.669,12.099
		c-4.899,3.035-9.988,2.924-15.017,0.116C3.82,23.475,3.978,23.604,4.098,23.61"/>
</g>
</svg>
